<svg xmlns="http://www.w3.org/2000/svg" width="63.011" height="72.712" viewBox="0 0 63.011 72.712">
  <g id="_21-Payment-terminal" data-name="21-Payment-terminal" transform="translate(-6 -1.994)">
    <path id="Path_205" data-name="Path 205" d="M58.6,14H39.212A1.212,1.212,0,0,0,38,15.212V66.105a1.212,1.212,0,0,0,1.212,1.212H58.6a3.635,3.635,0,0,0,3.635-3.635V17.635A3.635,3.635,0,0,0,58.6,14Z" transform="translate(6.776 2.542)" fill="#fc6067"/>
    <path id="Path_206" data-name="Path 206" d="M55.847,14H51a3.635,3.635,0,0,1,3.635,3.635V63.682A3.635,3.635,0,0,1,51,67.317h4.847a3.635,3.635,0,0,0,3.635-3.635V17.635A3.635,3.635,0,0,0,55.847,14Z" transform="translate(9.529 2.542)" fill="#fb4b5b"/>
    <rect id="Rectangle_135" data-name="Rectangle 135" width="41.544" height="63.26" rx="3" transform="translate(6 11.436)" fill="#565d69"/>
    <path id="Path_207" data-name="Path 207" d="M37.847,10H33a3.635,3.635,0,0,1,3.635,3.635v55.74A3.635,3.635,0,0,1,33,73.011h4.847a3.635,3.635,0,0,0,3.635-3.635V13.635A3.635,3.635,0,0,0,37.847,10Z" transform="translate(5.717 1.695)" fill="#4e5460"/>
    <rect id="Rectangle_136" data-name="Rectangle 136" width="29.269" height="15.107" rx="1" transform="translate(11.665 24.654)" fill="#68b1fc"/>
    <path id="Path_208" data-name="Path 208" d="M31.212,34.329V22.212A1.212,1.212,0,0,0,30,21h4.847a1.212,1.212,0,0,1,1.212,1.212V34.329a1.212,1.212,0,0,1-1.212,1.212H30A1.212,1.212,0,0,0,31.212,34.329Z" transform="translate(5.082 4.024)" fill="#539ffb"/>
    <path id="Path_209" data-name="Path 209" d="M36.484,2.1a1.212,1.212,0,0,0-1.321.254L32.388,5.14,29.613,2.353a1.212,1.212,0,0,0-1.721,0L25.117,5.14,22.343,2.353a1.212,1.212,0,0,0-1.721,0L17.847,5.14,15.072,2.353A1.219,1.219,0,0,0,13,3.213V20.177H37.235V3.213A1.212,1.212,0,0,0,36.484,2.1Z" transform="translate(1.482 0)" fill="#e7eaef"/>
    <path id="Path_210" data-name="Path 210" d="M33.847,3.211V20.176H29V5.138l2.775-2.787a1.219,1.219,0,0,1,2.072.86Z" transform="translate(4.87 0.002)" fill="#d8dbe0"/>
    <path id="Path_211" data-name="Path 211" d="M38.87,18.423H12.212a1.212,1.212,0,1,1,0-2.423H38.87a1.212,1.212,0,1,1,0,2.423Z" transform="translate(1.059 2.966)" fill="#4e5460"/>
    <g id="Group_114" data-name="Group 114" transform="translate(11.665 49.203)">
      <rect id="Rectangle_137" data-name="Rectangle 137" width="7.553" height="6.609" rx="1" transform="translate(0 11.33)" fill="#e7eaef"/>
      <rect id="Rectangle_138" data-name="Rectangle 138" width="7.553" height="6.609" rx="1" transform="translate(11.33 11.33)" fill="#e7eaef"/>
      <rect id="Rectangle_139" data-name="Rectangle 139" width="6.609" height="6.609" rx="1" transform="translate(22.66 11.33)" fill="#e7eaef"/>
      <rect id="Rectangle_140" data-name="Rectangle 140" width="7.553" height="7.553" rx="1" transform="translate(0 0)" fill="#e7eaef"/>
      <rect id="Rectangle_141" data-name="Rectangle 141" width="7.553" height="7.553" rx="1" transform="translate(11.33 0)" fill="#e7eaef"/>
      <rect id="Rectangle_142" data-name="Rectangle 142" width="6.609" height="7.553" rx="1" transform="translate(22.66 0)" fill="#e7eaef"/>
    </g>
    <path id="Path_212" data-name="Path 212" d="M34.423,41H32a1.212,1.212,0,0,1,1.212,1.212v4.847A1.212,1.212,0,0,1,32,48.27h2.423a1.212,1.212,0,0,0,1.212-1.212V42.212A1.212,1.212,0,0,0,34.423,41Z" transform="translate(5.505 8.259)" fill="#d8dbe0"/>
    <path id="Path_213" data-name="Path 213" d="M34.423,50H32a1.212,1.212,0,0,1,1.212,1.212v4.847A1.212,1.212,0,0,1,32,57.27h2.423a1.212,1.212,0,0,0,1.212-1.212V51.212A1.212,1.212,0,0,0,34.423,50Z" transform="translate(5.505 10.165)" fill="#d8dbe0"/>
    <path id="Path_214" data-name="Path 214" d="M25.423,41H23a1.212,1.212,0,0,1,1.212,1.212v4.847A1.212,1.212,0,0,1,23,48.27h2.423a1.212,1.212,0,0,0,1.212-1.212V42.212A1.212,1.212,0,0,0,25.423,41Z" transform="translate(3.6 8.259)" fill="#d8dbe0"/>
    <path id="Path_215" data-name="Path 215" d="M25.423,50H23a1.212,1.212,0,0,1,1.212,1.212v4.847A1.212,1.212,0,0,1,23,57.27h2.423a1.212,1.212,0,0,0,1.212-1.212V51.212A1.212,1.212,0,0,0,25.423,50Z" transform="translate(3.6 10.165)" fill="#d8dbe0"/>
    <path id="Path_216" data-name="Path 216" d="M16.423,41H14a1.212,1.212,0,0,1,1.212,1.212v4.847A1.212,1.212,0,0,1,14,48.27h2.423a1.212,1.212,0,0,0,1.212-1.212V42.212A1.212,1.212,0,0,0,16.423,41Z" transform="translate(1.694 8.259)" fill="#d8dbe0"/>
    <path id="Path_217" data-name="Path 217" d="M16.423,50H14a1.212,1.212,0,0,1,1.212,1.212v4.847A1.212,1.212,0,0,1,14,57.27h2.423a1.212,1.212,0,0,0,1.212-1.212V51.212A1.212,1.212,0,0,0,16.423,50Z" transform="translate(1.694 10.165)" fill="#d8dbe0"/>
    <path id="Path_218" data-name="Path 218" d="M17.059,38.423H12.212a1.212,1.212,0,1,1,0-2.423h4.847a1.212,1.212,0,1,1,0,2.423Z" transform="translate(1.059 7.201)" fill="#fc6067"/>
    <path id="Path_219" data-name="Path 219" d="M26.059,38.423H21.212a1.212,1.212,0,1,1,0-2.423h4.847a1.212,1.212,0,1,1,0,2.423Z" transform="translate(2.964 7.201)" fill="#fcb860"/>
    <path id="Path_220" data-name="Path 220" d="M35.059,38.423H30.212a1.212,1.212,0,1,1,0-2.423h4.847a1.212,1.212,0,1,1,0,2.423Z" transform="translate(4.87 7.201)" fill="#59e78b"/>
    <rect id="Rectangle_143" data-name="Rectangle 143" width="9.442" height="12.274" rx="3" transform="translate(53.209 22.766)" fill="#fcb860"/>
    <path id="Path_221" data-name="Path 221" d="M51.212,56.388A1.212,1.212,0,0,1,50,55.176V38.212a1.212,1.212,0,1,1,2.423,0V55.176A1.212,1.212,0,0,1,51.212,56.388Z" transform="translate(9.317 7.412)" fill="#e7eaef"/>
  </g>
</svg>
