<svg xmlns="http://www.w3.org/2000/svg" width="60.026" height="72.764" viewBox="0 0 60.026 72.764">
  <g id="drop" transform="translate(-44.818)">
    <path id="Path_116" data-name="Path 116" d="M79.155,31.516a.392.392,0,0,0-.019-.043L62.917.211a.391.391,0,0,0-.695,0L46,31.473a.354.354,0,0,0-.019.043A18.288,18.288,0,0,0,62.557,56.195h.024A18.288,18.288,0,0,0,79.155,31.516Z" fill="#68ccea"/>
    <g id="Group_100" data-name="Group 100" transform="translate(44.818 0.464)">
      <path id="Path_117" data-name="Path 117" d="M63.82,55.86a20.3,20.3,0,0,1-6.091-14.407.409.409,0,0,1,0-.053L62.091,3.266,46,34.275a.354.354,0,0,0-.019.043A18.288,18.288,0,0,0,62.557,59h.024a18.246,18.246,0,0,0,4.3-.649A20.664,20.664,0,0,1,63.82,55.86Z" transform="translate(-44.818 -3.266)" fill="#5abce2"/>
      <path id="Path_118" data-name="Path 118" d="M358.561,186.2a.4.4,0,0,0-.019-.043l-8-15.414a.391.391,0,0,0-.695,0l-8,15.414a.351.351,0,0,0-.019.043,9.215,9.215,0,0,0,8.352,12.436h.024a9.215,9.215,0,0,0,8.352-12.436Z" transform="translate(-299.118 -146.758)" fill="#5abce2"/>
    </g>
    <path id="Path_119" data-name="Path 119" d="M393.468,186.2a.4.4,0,0,0-.019-.043l-8-15.414a.391.391,0,0,0-.347-.211h0l-3.148,18.308a.4.4,0,0,0-.006.052,10.175,10.175,0,0,0,5.3,9.427c.275-.074.547-.16.815-.26A9.227,9.227,0,0,0,393.468,186.2Z" transform="translate(-289.208 -146.294)" fill="#68ccea"/>
    <path id="Path_120" data-name="Path 120" d="M279.87,388.87,274.542,378.6a.391.391,0,0,0-.695,0l-5.329,10.271a.366.366,0,0,0-.019.043,6.272,6.272,0,0,0,5.684,8.463h.024a6.272,6.272,0,0,0,5.683-8.463A.387.387,0,0,0,279.87,388.87Z" transform="translate(-191.552 -324.613)" fill="#5abce2"/>
    <path id="Path_121" data-name="Path 121" d="M302.653,388.913a.386.386,0,0,0-.019-.043L297.3,378.6a.392.392,0,0,0-.347-.211.386.386,0,0,0-.12.021L294.65,391.28a.433.433,0,0,0-.006.053,7.083,7.083,0,0,0,2.838,6.007,6.271,6.271,0,0,0,5.171-8.426Z" transform="translate(-214.315 -324.613)" fill="#68ccea"/>
  </g>
</svg>
