<svg id="garbage" xmlns="http://www.w3.org/2000/svg" width="71.923" height="72.488" viewBox="0 0 71.923 72.488">
  <path id="Path_122" data-name="Path 122" d="M74.625,161H36.117A2.125,2.125,0,0,0,34,163.282l3.4,45.445a2.124,2.124,0,0,0,2.118,1.965H71.227a2.124,2.124,0,0,0,2.118-1.965l3.4-45.445A2.124,2.124,0,0,0,74.625,161Z" transform="translate(-29.463 -138.206)" fill="#9ddc34"/>
  <path id="Path_123" data-name="Path 123" d="M206.367,163.282l-3.4,45.445a2.124,2.124,0,0,1-2.118,1.965H184.995V161h19.254A2.125,2.125,0,0,1,206.367,163.282Z" transform="translate(-159.087 -138.206)" fill="#6ec265"/>
  <path id="Path_124" data-name="Path 124" d="M174.242,2.124V6.8a2.124,2.124,0,0,1-4.247,0V2.124a2.124,2.124,0,0,1,4.247,0Z" transform="translate(-146.21)" fill="#61729a"/>
  <path id="Path_125" data-name="Path 125" d="M184.995,8.919V0a2.124,2.124,0,0,1,2.124,2.124V6.8A2.124,2.124,0,0,1,184.995,8.919Z" transform="translate(-159.087)" fill="#47568b"/>
  <path id="Path_126" data-name="Path 126" d="M70.38,33H40.366a6.379,6.379,0,0,0-6.371,6.371v4.814a2.124,2.124,0,0,0,2.124,2.124H74.627a2.124,2.124,0,0,0,2.124-2.124V39.371A6.379,6.379,0,0,0,70.38,33Z" transform="translate(-29.465 -28.328)" fill="#9ddc34"/>
  <g id="Group_101" data-name="Group 101" transform="translate(0 4.672)">
    <path id="Path_127" data-name="Path 127" d="M206.373,39.371v4.814a2.124,2.124,0,0,1-2.124,2.124H184.995V33H200A6.379,6.379,0,0,1,206.373,39.371Z" transform="translate(-159.087 -33)" fill="#6ec265"/>
    <path id="Path_128" data-name="Path 128" d="M53.19,109.7l-3.909-3.907H6.524L2.616,109.7a2.127,2.127,0,0,0-.622,1.5v4.53a2.124,2.124,0,0,0,2.124,2.124H51.688a2.124,2.124,0,0,0,2.124-2.124V111.2A2.127,2.127,0,0,0,53.19,109.7Z" transform="translate(-1.995 -95.485)" fill="#6ec265"/>
    <path id="Path_129" data-name="Path 129" d="M32.649,417A6.662,6.662,0,0,0,26,423.654a6.83,6.83,0,0,0,1.917,4.744,6.49,6.49,0,0,0,9.473,0,6.83,6.83,0,0,0,1.917-4.744A6.662,6.662,0,0,0,32.649,417Z" transform="translate(-22.597 -362.635)" fill="#6ec265"/>
  </g>
  <path id="Path_130" data-name="Path 130" d="M210.9,111.2v4.53a2.124,2.124,0,0,1-2.124,2.124H184.995V105.79h21.378l3.909,3.907A2.127,2.127,0,0,1,210.9,111.2Z" transform="translate(-159.087 -90.813)" fill="#5ea56a"/>
  <path id="Path_131" data-name="Path 131" d="M180.76,234.083l-3.352,3.442a2.15,2.15,0,0,1-3.176-.129l-3.27-3.185a2.124,2.124,0,0,1,2.646-3.3,8.075,8.075,0,0,0-5.646-5.216A2.123,2.123,0,0,1,169,221.58h.008a12.328,12.328,0,0,1,9,9.294,2.123,2.123,0,0,1,2.758,3.207Z" transform="translate(-143.09 -190.155)" fill="#e9f8ff"/>
  <path id="Path_132" data-name="Path 132" d="M196.75,234.465l-3.352,3.442a2.15,2.15,0,0,1-3.176-.129l-3.27-3.185a2.124,2.124,0,0,1,2.646-3.3,8.083,8.083,0,0,0-4.61-4.876c0-4.651-.006-4.462.008-4.455a12.328,12.328,0,0,1,9,9.294,2.123,2.123,0,0,1,2.758,3.207Z" transform="translate(-159.08 -190.537)" fill="#d4f2ff"/>
  <path id="Path_133" data-name="Path 133" d="M115.748,291.977a2.123,2.123,0,0,1-2.581,1.536,12.332,12.332,0,0,1-8.989-9.262,2.124,2.124,0,0,1-2.734-3.225c3.673-3.769,3.447-3.583,3.818-3.8a2.126,2.126,0,0,1,2.36.166c.149.117.054.033,3.62,3.507a2.122,2.122,0,0,1-2.68,3.272,8.066,8.066,0,0,0,5.65,5.227A2.123,2.123,0,0,1,115.748,291.977Z" transform="translate(-86.848 -237.737)" fill="#e9f8ff"/>
  <path id="Path_134" data-name="Path 134" d="M187.986,364.3a2.123,2.123,0,0,1-2.581,1.536c-.139-.035-.275-.072-.411-.112V361.2a8.084,8.084,0,0,0,1.457.522A2.123,2.123,0,0,1,187.986,364.3Z" transform="translate(-159.087 -310.063)" fill="#d4f2ff"/>
  <path id="Path_135" data-name="Path 135" d="M289,334.3H266.352a6.37,6.37,0,0,1-6.159-8.006l2.621-9.869a15.347,15.347,0,0,1,5.115-7.941l4.716-2.642a15.347,15.347,0,0,1,10.063,0l4.716,2.642a15.347,15.347,0,0,1,5.115,7.941l2.621,9.869A6.37,6.37,0,0,1,289,334.3Z" transform="translate(-223.454 -261.818)" fill="#e27cb8"/>
  <path id="Path_136" data-name="Path 136" d="M396.32,334.306H384.995V305a15.291,15.291,0,0,1,5.032.848l4.716,2.642a15.347,15.347,0,0,1,5.115,7.941l2.621,9.869A6.37,6.37,0,0,1,396.32,334.306Z" transform="translate(-330.772 -261.82)" fill="#de5e96"/>
  <path id="Path_137" data-name="Path 137" d="M322.4,209.637a16.517,16.517,0,0,0-20.729,0,4.482,4.482,0,0,0,.03,7l9.015,7.148a2.122,2.122,0,0,0,2.639,0l9.016-7.148A4.482,4.482,0,0,0,322.4,209.637Z" transform="translate(-257.813 -176.818)" fill="#de5e96"/>
  <path id="Path_138" data-name="Path 138" d="M395.33,216.621l-9.015,7.148a2.117,2.117,0,0,1-1.319.46V205.96a16.545,16.545,0,0,1,10.365,3.66A4.482,4.482,0,0,1,395.33,216.621Z" transform="translate(-330.772 -176.801)" fill="#ca4986"/>
  <path id="Path_139" data-name="Path 139" d="M374.242,282.124v3.539h-4.247v-3.539a2.124,2.124,0,0,1,4.247,0Z" transform="translate(-317.895 -240.359)" fill="#ca4986"/>
  <path id="Path_140" data-name="Path 140" d="M387.119,282.124v3.539h-2.124V280a2.127,2.127,0,0,1,2.124,2.124Z" transform="translate(-330.772 -240.359)" fill="#b93573"/>
  <path id="Path_141" data-name="Path 141" d="M331.092,315.319a12.1,12.1,0,0,1,1.454,6.149,2.124,2.124,0,0,1-2.4,2.107,2.161,2.161,0,0,1-1.852-2.165c-.016-3.64-1.539-5.054-2.407-5.565-.872.514-2.407,1.94-2.407,5.623a2.124,2.124,0,0,1-2.206,2.122,2.167,2.167,0,0,1-2.042-2.2,12.065,12.065,0,0,1,1.454-6.074,17.192,17.192,0,0,1-4.547-1.688,15.372,15.372,0,0,1,4.716-2.642,24.184,24.184,0,0,0,10.063,0,15.373,15.373,0,0,1,4.716,2.642A17.191,17.191,0,0,1,331.092,315.319Z" transform="translate(-271.669 -266.962)" fill="#61729a"/>
  <path id="Path_142" data-name="Path 142" d="M390.2,315.319a12.1,12.1,0,0,1,1.454,6.149,2.124,2.124,0,0,1-2.4,2.107,2.161,2.161,0,0,1-1.852-2.165c-.016-3.64-1.539-5.054-2.407-5.565v-4.321a21.456,21.456,0,0,0,5.032-.534,15.372,15.372,0,0,1,4.716,2.642A17.191,17.191,0,0,1,390.2,315.319Z" transform="translate(-330.772 -266.962)" fill="#47568b"/>
  <circle id="Ellipse_18" data-name="Ellipse 18" cx="2.175" cy="2.175" r="2.175" transform="translate(8.067 63.779)" fill="#5ea56a"/>
  <path id="Path_143" data-name="Path 143" d="M53.811,111.2H1.995a2.127,2.127,0,0,1,.622-1.5l3.907-3.907H49.281L53.19,109.7A2.127,2.127,0,0,1,53.811,111.2Z" transform="translate(-1.995 -90.813)" fill="#5ea56a"/>
  <path id="Path_144" data-name="Path 144" d="M210.9,111.2H184.995v-5.41h21.378l3.909,3.907A2.127,2.127,0,0,1,210.9,111.2Z" transform="translate(-159.087 -90.813)" fill="#4d8755"/>
</svg>
