<svg id="healthcare-covid19-coronavirus-hand-hearth" xmlns="http://www.w3.org/2000/svg" width="72.202" height="72.554" viewBox="0 0 72.202 72.554">
  <path id="Path_222" data-name="Path 222" d="M18.383,34.2,12.7,17.824a3.923,3.923,0,0,0-4.469-2.912,3.775,3.775,0,0,0-2.862,4.657l5.849,18.063Z" transform="translate(-2.729 -0.225)" fill="#ffac96"/>
  <path id="Path_223" data-name="Path 223" d="M48.29,34.2l5.686-16.381a3.923,3.923,0,0,1,4.469-2.912,3.775,3.775,0,0,1,2.862,4.657L55.458,37.632Z" transform="translate(8.259 -0.225)" fill="#ffac96"/>
  <path id="Path_224" data-name="Path 224" d="M30.612,39.977l-11.1-6.5a3.758,3.758,0,0,0-4.77.852L10.7,21.824a3.923,3.923,0,0,0-4.469-2.912,3.775,3.775,0,0,0-2.862,4.657l5.46,20.373a4.956,4.956,0,0,0,1.519,2.46l8.486,7.544A5.021,5.021,0,0,1,20.512,57.7v4.017H35.575V48.641a10.042,10.042,0,0,0-4.964-8.664Z" transform="translate(-3.24 0.796)" fill="#ffbcab"/>
  <path id="Path_225" data-name="Path 225" d="M64.348,18.912a3.923,3.923,0,0,0-4.469,2.912l-4.054,12.5a3.758,3.758,0,0,0-4.77-.852l-11.1,6.5A10.042,10.042,0,0,0,35,48.641V61.716H50.063V57.7a5.021,5.021,0,0,1,1.682-3.753L60.231,46.4a4.956,4.956,0,0,0,1.519-2.46l5.46-20.373a3.775,3.775,0,0,0-2.862-4.657Z" transform="translate(4.867 0.796)" fill="#ffbcab"/>
  <path id="Path_226" data-name="Path 226" d="M34,53V63.042H51.574V53H34Z" transform="translate(4.612 9.512)" fill="#006df0"/>
  <path id="Path_227" data-name="Path 227" d="M33.574,53H16V63.042H33.574Z" transform="translate(0.017 9.512)" fill="#006df0"/>
  <path id="Path_228" data-name="Path 228" d="M52.974,22.481l-.891.891L36.1,39.351,20.124,23.372l-.891-.891A11.3,11.3,0,1,1,35.214,6.512l.889.893.891-.891A11.3,11.3,0,1,1,52.976,22.483Z" transform="translate(-0.002 -3.2)" fill="#d80027"/>
  <path id="Path_229" data-name="Path 229" d="M49.126,6.514a11.172,11.172,0,0,0-9.249-3.237,11.29,11.29,0,0,1,6.738,19.205l-.891.891L31,38.1l1.255,1.255L48.235,23.372l.891-.891A11.3,11.3,0,0,0,49.126,6.514Z" transform="translate(3.846 -3.2)" fill="#bd0022"/>
  <path id="Path_230" data-name="Path 230" d="M36.042,25.063V20.042h5.021V15.021H36.042V10H31.021v5.021H26v5.021h5.021v5.021Z" transform="translate(2.57 -1.464)" fill="#f1f2f2"/>
  <g id="Group_115" data-name="Group 115" transform="translate(10.632 36.266)">
    <path id="Path_231" data-name="Path 231" d="M52.611,34.111l-8.39,4.644a1.087,1.087,0,1,0,1.087,1.883l7.3-4.017a3.766,3.766,0,0,0,1.656-4.53A3.729,3.729,0,0,1,52.611,34.111Z" transform="translate(-3.55 -32.091)" fill="#ffac96"/>
    <path id="Path_232" data-name="Path 232" d="M13.588,34.111l8.39,4.644a1.087,1.087,0,1,1-1.087,1.883l-7.3-4.017a3.766,3.766,0,0,1-1.656-4.53,3.729,3.729,0,0,0,1.656,2.02Z" transform="translate(-11.71 -32.091)" fill="#ffac96"/>
  </g>
</svg>
