<svg id="internet" xmlns="http://www.w3.org/2000/svg" width="76.59" height="72.134" viewBox="0 0 76.59 72.134">
  <path id="Path_165" data-name="Path 165" d="M2.641,0H15.846a2.641,2.641,0,0,1,2.641,2.641V7.923H0V2.641A2.641,2.641,0,0,1,2.641,0Z" transform="translate(69.987 72.134) rotate(180)" fill="#cfd1d3"/>
  <path id="Path_166" data-name="Path 166" d="M391.591,35.1l-.091-.023a2.641,2.641,0,0,0-3.117,1.645L376,70.156V72.8h5.282V70.156l12.134-31.547a2.641,2.641,0,0,0-1.824-3.51Z" transform="translate(-317.897 -34.997)" fill="#7e8488"/>
  <path id="Path_167" data-name="Path 167" d="M34.634,36.721a2.641,2.641,0,0,0-3.117-1.645l-.091.023a2.641,2.641,0,0,0-1.824,3.51L41.735,70.156V72.8h5.282V70.156Z" transform="translate(-28.53 -34.997)" fill="#7e8488"/>
  <path id="Path_168" data-name="Path 168" d="M94.717,249.46A2.641,2.641,0,0,0,92.355,248H32.235a2.641,2.641,0,0,0-2.362,1.46L24,261.205v15.846a2.641,2.641,0,0,0,2.641,2.641H97.949a2.641,2.641,0,0,0,2.641-2.641V261.205Z" transform="translate(-24 -212.841)" fill="#e0e2e5"/>
  <path id="Path_169" data-name="Path 169" d="M24,328h76.59v15.846a2.641,2.641,0,0,1-2.641,2.641H26.641A2.641,2.641,0,0,1,24,343.846Z" transform="translate(-24 -279.635)" fill="#cfd1d3"/>
  <path id="Path_170" data-name="Path 170" d="M64,424H82.487v5.282a2.641,2.641,0,0,1-2.641,2.641H66.641A2.641,2.641,0,0,1,64,429.282Z" transform="translate(-57.397 -359.789)" fill="#cfd1d3"/>
  <path id="Path_171" data-name="Path 171" d="M61.282,360h55.462a5.282,5.282,0,0,1,5.282,5.282v7.923H56v-7.923A5.282,5.282,0,0,1,61.282,360Z" transform="translate(-50.718 -306.353)" fill="#7e8488"/>
  <circle id="Ellipse_22" data-name="Ellipse 22" cx="1.521" cy="1.521" r="1.521" transform="translate(51.323 60.162)" fill="#fcb442"/>
  <ellipse id="Ellipse_23" data-name="Ellipse 23" cx="1.014" cy="1.521" rx="1.014" ry="1.521" transform="translate(37.124 25.678)" fill="#a4d4f4"/>
  <circle id="Ellipse_24" data-name="Ellipse 24" cx="1.521" cy="1.521" r="1.521" transform="translate(56.395 60.162)" fill="#fcb442"/>
  <ellipse id="Ellipse_25" data-name="Ellipse 25" cx="1.014" cy="1.521" rx="1.014" ry="1.521" transform="translate(62.48 60.162)" fill="#fcb442"/>
  <g id="Group_109" data-name="Group 109" transform="translate(22.034 4.787)">
    <path id="Path_172" data-name="Path 172" d="M234.161,164.188a1.317,1.317,0,0,1-.934-.387,3.964,3.964,0,0,0-5.6,0,1.321,1.321,0,0,1-1.868-1.868,6.6,6.6,0,0,1,9.338,0,1.321,1.321,0,0,1-.934,2.254Z" transform="translate(-214.165 -144.154)" fill="#a4d4f4"/>
    <path id="Path_173" data-name="Path 173" d="M219,133.737a1.316,1.316,0,0,1-.934-.386,9.248,9.248,0,0,0-13.074,0,1.321,1.321,0,0,1-1.868-1.868,11.889,11.889,0,0,1,16.809,0,1.321,1.321,0,0,1-.934,2.254Z" transform="translate(-195.268 -117.438)" fill="#a4d4f4"/>
    <path id="Path_174" data-name="Path 174" d="M203.85,103.282a1.316,1.316,0,0,1-.934-.387,14.524,14.524,0,0,0-20.541,0,1.321,1.321,0,1,1-1.868-1.867,17.165,17.165,0,0,1,24.277,0,1.321,1.321,0,0,1-.934,2.254Z" transform="translate(-176.385 -90.718)" fill="#a4d4f4"/>
    <path id="Path_175" data-name="Path 175" d="M188.69,72.829a1.317,1.317,0,0,1-.934-.387,19.808,19.808,0,0,0-28.013,0,1.321,1.321,0,1,1-1.867-1.868,22.449,22.449,0,0,1,31.747,0,1.321,1.321,0,0,1-.934,2.254Z" transform="translate(-157.49 -63.999)" fill="#a4d4f4"/>
  </g>
</svg>
