<svg id="lightning" xmlns="http://www.w3.org/2000/svg" width="45.255" height="72.857" viewBox="0 0 45.255 72.857">
  <path id="Path_176" data-name="Path 176" d="M113.928,72.475l28.1-48.388a1.522,1.522,0,0,0-1.521-2.273l-18.693,2.541L126.282.907a.761.761,0,0,0-1.354-.6L97.3,36.777a1.522,1.522,0,0,0,1.373,2.433l20.609-2.169-6.756,34.907A.761.761,0,0,0,113.928,72.475Z" transform="translate(-96.985 0)" fill="#ffdc64"/>
  <path id="Path_177" data-name="Path 177" d="M105.938,34.207a.63.63,0,0,1-.585-.962L126.012.191a.75.75,0,0,0-1.084.128L97.3,36.792a1.522,1.522,0,0,0,1.373,2.433l20.609-2.169-6.756,34.907a.74.74,0,0,0,.6.881L124.7,36.21a2.537,2.537,0,0,0-2.622-3.294Z" transform="translate(-96.985 -0.015)" fill="#ffc850"/>
</svg>
