<svg id="telephone" xmlns="http://www.w3.org/2000/svg" width="85.6" height="72.317" viewBox="0 0 85.6 72.317">
  <path id="Path_195" data-name="Path 195" d="M70.03,96.829,51.591,86.213a4.566,4.566,0,0,0-5.507.728l-3.632,3.632a3.876,3.876,0,0,1-5.171.286,106,106,0,0,1-8.476-7.623,106.064,106.064,0,0,1-7.623-8.476,3.876,3.876,0,0,1,.286-5.171L25.1,65.957a4.566,4.566,0,0,0,.728-5.506L15.213,42.012a4.565,4.565,0,0,0-7.185-.95L2.555,46.534C-4.577,53.666,3.734,73.54,21.118,90.924s37.258,25.695,44.389,18.563l5.473-5.473A4.565,4.565,0,0,0,70.03,96.829Z" transform="translate(0 -39.724)" fill="#ff6464"/>
  <g id="Group_111" data-name="Group 111" transform="translate(6.488 0)">
    <path id="Path_196" data-name="Path 196" d="M38.8,42.6,54.139,69.235l3.278-3.278a4.565,4.565,0,0,0,.728-5.506L47.53,42.012a4.566,4.566,0,0,0-7.185-.95Z" transform="translate(-38.805 -39.724)" fill="#d2555a"/>
    <path id="Path_197" data-name="Path 197" d="M282.245,334.095l1.54-1.54a4.566,4.566,0,0,0-.95-7.185L264.4,314.754a4.566,4.566,0,0,0-5.507.728l-3.363,3.363Z" transform="translate(-219.293 -268.265)" fill="#d2555a"/>
  </g>
  <path id="Path_198" data-name="Path 198" d="M270.842,57.379H235.421a5.921,5.921,0,0,0-5.9,5.9V83.944a5.921,5.921,0,0,0,5.9,5.9h19.186v5.6a.738.738,0,0,0,1.26.522l6.12-6.119h8.855a5.921,5.921,0,0,0,5.9-5.9V63.283A5.921,5.921,0,0,0,270.842,57.379Z" transform="translate(-191.145 -54.427)" fill="#e4eaf6"/>
  <path id="Path_199" data-name="Path 199" d="M270.731,95.641H266.3a1.476,1.476,0,1,1,0-2.952h4.428a1.476,1.476,0,0,1,0,2.952Z" transform="translate(-220.551 -83.834)" fill="#afb9d2"/>
  <g id="Group_112" data-name="Group 112" transform="translate(44.276 8.855)">
    <path id="Path_200" data-name="Path 200" d="M350.234,95.641H328.1a1.476,1.476,0,0,1,0-2.952h22.138a1.476,1.476,0,0,1,0,2.952Z" transform="translate(-316.289 -92.689)" fill="#c7cfe2"/>
    <path id="Path_201" data-name="Path 201" d="M298.772,130.951H266.3a1.476,1.476,0,1,1,0-2.952h32.469a1.476,1.476,0,1,1,0,2.952Z" transform="translate(-264.827 -122.096)" fill="#c7cfe2"/>
  </g>
  <path id="Path_202" data-name="Path 202" d="M438.455,166.262h-4.428a1.476,1.476,0,0,1,0-2.952h4.428a1.476,1.476,0,0,1,0,2.952Z" transform="translate(-360.234 -142.648)" fill="#afb9d2"/>
  <g id="Group_113" data-name="Group 113" transform="translate(44.276 20.662)">
    <path id="Path_203" data-name="Path 203" d="M288.441,166.262H266.3a1.476,1.476,0,1,1,0-2.952h22.138a1.476,1.476,0,0,1,0,2.952Z" transform="translate(-264.827 -163.31)" fill="#c7cfe2"/>
    <path id="Path_204" data-name="Path 204" d="M298.772,201.572H266.3a1.476,1.476,0,1,1,0-2.952h32.469a1.476,1.476,0,1,1,0,2.952Z" transform="translate(-264.827 -192.717)" fill="#c7cfe2"/>
  </g>
</svg>
